<?xml version="1.0" encoding="utf-8"?>
<!-- Svg Vector Icons : http://www.onlinewebfonts.com/icon -->
<!DOCTYPE svg PUBLIC "-//W3C//DTD SVG 1.1//EN" "http://www.w3.org/Graphics/SVG/1.1/DTD/svg11.dtd">
<svg version="1.1" xmlns="http://www.w3.org/2000/svg" xmlns:xlink="http://www.w3.org/1999/xlink" x="0px" y="0px" viewBox="0 0 1000 1000" enable-background="new 0 0 1000 1000" xml:space="preserve" style="fill:#fff">
<metadata> Svg Vector Icons : http://www.onlinewebfonts.com/icon </metadata>
<g><path d="M807.3,561.2c-28.9,143.3-156.1,247.4-302.4,247.4c-170.2,0-308.7-138.5-308.7-308.7c0-170.2,138.4-308.6,308.7-308.6c81.1,0,157.8,32.7,215.2,88.6l-95.3,96.3h313.9V61l-86.6,86.2C759.8,56.5,636,5.1,505.1,5.1C232.1,5.1,10,227.1,10,499.9c0,272.9,222,494.9,494.9,494.9C739.6,994.9,943.7,828,990,598L807.3,561.2z"/></g>
</svg>